<svg id="Layer_1" data-name="Layer 1" xmlns="http://www.w3.org/2000/svg" width="42.84" height="38.53" viewBox="0 0 42.84 38.53"><title>icon</title><path d="M39.12,7.19A1.43,1.43,0,0,0,38,6.73H11.47A2.85,2.85,0,0,0,8.82,9l-.63,4h8.07l-.32,2-1,6-.32,2-1,6-.32,2H5.33L4.6,35.63a1.44,1.44,0,0,0,.28,1.18A1.44,1.44,0,0,0,6,37.27H26.75l1-6.27H19.56l.32-2,1-6,.32-2h8.18l1-6H22.1l.32-2h10.2l-.32,2-1,6h6l2-12.63A1.43,1.43,0,0,0,39.12,7.19Z" transform="translate(-0.58 -2.73)" fill="#cfe0c3"/><rect x="7.42" y="10.27" width="32" height="2" fill="#70a9a1"/><rect x="7.42" y="18.27" width="32" height="2" fill="#70a9a1"/><rect x="7.42" y="26.27" width="32" height="2" fill="#70a9a1"/><polygon points="9.72 35.28 14.79 3.28 16.79 3.28 11.72 35.28 9.72 35.28" fill="#70a9a1"/><polygon points="17.9 35.28 22.97 3.28 24.97 3.28 19.9 35.28 17.9 35.28" fill="#70a9a1"/><polygon points="26.09 35.28 31.16 3.28 33.16 3.28 28.09 35.28 26.09 35.28" fill="#70a9a1"/><polygon points="4.16 18.27 4.16 20.27 6.02 20.27 6.34 18.27 4.16 18.27" fill="#40798c"/><polygon points="5.45 10.27 5.45 12.27 7.29 12.27 7.61 10.27 5.45 10.27" fill="#40798c"/><polygon points="2.86 26.27 2.86 28.27 4.76 28.27 5.07 26.27 2.86 26.27" fill="#40798c"/><polygon points="12.83 28.27 13.15 26.27 14.1 20.27 14.41 18.27 15.36 12.27 15.68 10.27 13.66 10.27 7.61 10.27 7.29 12.27 13.34 12.27 12.39 18.27 6.34 18.27 6.02 20.27 12.07 20.27 11.12 26.27 5.07 26.27 4.76 28.27 10.8 28.27 12.83 28.27" fill="#40798c"/><polygon points="38.69 20.27 38.69 18.27 36.82 18.27 36.5 20.27 38.69 20.27" fill="#40798c"/><polygon points="37.39 28.27 37.39 26.27 35.55 26.27 35.24 28.27 37.39 28.27" fill="#40798c"/><polygon points="25.88 36.38 27.85 36.69 28.19 34.53 26.17 34.53 25.88 36.38" fill="#40798c"/><path d="M32.3,15l.32-2H22.41l-.32,2h8.18l-1,6H21.15l-.32,2-1,6-.32,2h8.18l-1,6.27h2l1-6.27h6l.32-2h-6l1-6h6l.32-2h-6ZM28.06,29H21.9l1-6H29Z" transform="translate(-0.58 -2.73)" fill="#40798c"/><path d="M38,2.73H11.47a6.82,6.82,0,0,0-6.6,5.64L.65,35a5.44,5.44,0,0,0,1.19,4.4A5.44,5.44,0,0,0,6,41.27H32.53a6.82,6.82,0,0,0,6.6-5.64L43.35,9a5.44,5.44,0,0,0-1.19-4.4A5.44,5.44,0,0,0,38,2.73Zm1.4,5.64L35.18,35a2.85,2.85,0,0,1-2.65,2.26H6a1.44,1.44,0,0,1-1.12-.46,1.44,1.44,0,0,1-.28-1.18L8.82,9a2.85,2.85,0,0,1,2.65-2.26H38a1.43,1.43,0,0,1,1.12.46A1.43,1.43,0,0,1,39.4,8.37Z" transform="translate(-0.58 -2.73)" fill="#40798c"/></svg>