<svg id="Layer_1" data-name="Layer 1" xmlns="http://www.w3.org/2000/svg" width="42.84" height="38.53" viewBox="0 0 42.84 38.53"><title>icon-mask</title><path d="M42.16,4.6A5.44,5.44,0,0,0,38,2.73H11.47a6.82,6.82,0,0,0-6.6,5.64L.65,35a5.44,5.44,0,0,0,1.19,4.4A5.44,5.44,0,0,0,6,41.27H32.53a6.82,6.82,0,0,0,6.6-5.64L43.35,9A5.44,5.44,0,0,0,42.16,4.6ZM7.87,15h6l-1,6h-6ZM6.6,23h6l-1,6h-6ZM35.18,35a2.85,2.85,0,0,1-2.65,2.26H28.77l1-6.27h6Zm-7.12-6H21.9l1-6H29Zm8.07,0h-6l1-6h6ZM39.4,8.37,37.4,21h-6l1-6,.32-2H22.41l-.32,2h8.18l-1,6H21.15l-.32,2-1,6-.32,2h8.18l-1,6.27H6a1.44,1.44,0,0,1-1.12-.46,1.44,1.44,0,0,1-.28-1.18L5.33,31h8.07l.32-2,1-6L15,21l1-6,.32-2H8.19l.63-4a2.85,2.85,0,0,1,2.65-2.26H38a1.43,1.43,0,0,1,1.12.46A1.43,1.43,0,0,1,39.4,8.37Z" transform="translate(-0.58 -2.73)"/></svg>